<?xml version="1.0" encoding="UTF-8"?>
<svg id="Layer_2" data-name="Layer 2" xmlns="http://www.w3.org/2000/svg" viewBox="0 0 764.24 579.75">
  <defs>
    <style>
      .cls-1 {
        fill: #cdcdcd;
      }

      .cls-1, .cls-2, .cls-3 {
        stroke: #000;
        stroke-miterlimit: 10;
        stroke-width: 2px;
      }

      .cls-2, .cls-3 {
        fill: none;
      }

      .cls-3 {
        stroke-dasharray: 0 6;
      }
    </style>
  </defs>
  <g id="Vector_Mockups" data-name="Vector Mockups">
    <g>
      <path class="cls-1" d="M567.96,355.41s48.56,105.89,54.63,119.38c6.07,13.49,19.56,44.52,23.61,48.56,4.05,4.05,20.23,22.26,31.03,53.96l85.66-15.51s-10.12-26.98-8.77-60.03c0,0,2.7-13.49-4.72-43.84-7.42-30.35-36.42-126.13-62.73-190.2-26.3-64.07-66.1-153.78-76.89-171.99-10.79-18.21-31.7-43.84-51.93-52.61-20.23-8.77-82.29-28.33-103.87-41.82,0,0-11.47,14.16-65.42,14.16S311.66,1.32,311.66,1.32c0,0-39.12,18.89-53.28,23.61-14.16,4.72-45.86,10.79-70.82,31.7-24.96,20.91-37.77,47.21-66.77,112.64-29,65.42-67.45,157.83-86.33,221.9-18.89,64.07-22.26,96.45-22.26,108.59s0,36.42-10.79,59.35c0,0,52.61,15.51,84.31,19.56,0,0,20.91-46.54,33.05-55.31,0,0,28.33-58.68,39.79-80.94,11.47-22.26,47.89-103.19,47.89-103.19l361.52,16.19Z"/>
      <path class="cls-1" d="M194.47,83.54s10.44,50.71,4.47,132c-5.97,81.29-14.17,144.68-14.92,182.72-.75,38.03-2.98,141.7,0,142.44s175.26,1.49,202.11,1.49h187.94s7.46,2.24,7.46-9.7-2.68-144.64-4.17-155.82c-1.49-11.19-7.02-97-8.51-122.35-1.49-25.36-17.15-134.24-4.47-166.31"/>
      <path class="cls-2" d="M311.66,1.32s9,61.56,71.22,61.56S453.97,1.32,453.97,1.32"/>
      <path class="cls-2" d="M292.6,11.14s15.1,71.97,90.29,71.97S472.08,11.14,472.08,11.14"/>
      <path class="cls-2" d="M313.79,10.32s70.75,28.74,137.07,1.58"/>
      <path class="cls-2" d="M316,17.58s68.47,28.74,132.65,1.58"/>
      <line class="cls-3" x1="118.76" y1="523.36" x2="12.19" y2="499.75"/>
      <line class="cls-3" x1="646.2" y1="523.36" x2="757.03" y2="494.37"/>
    </g>
  </g>
</svg>