<?xml version="1.0" encoding="UTF-8"?>
<svg id="Layer_2" data-name="Layer 2" xmlns="http://www.w3.org/2000/svg" viewBox="0 0 657.14 610.76">
  <defs>
    <style>
      .cls-1 {
        fill: #cdcdcd;
      }

      .cls-1, .cls-2 {
        stroke: #000;
        stroke-miterlimit: 10;
        stroke-width: 2px;
      }

      .cls-2 {
        fill: none;
      }
    </style>
  </defs>
  <g id="New_mockups" data-name="New mockups">
    <g>
      <path class="cls-1" d="M529,334.54l.02,275.22H133.82v-275.22l-15.94,11.75L1.24,256.51S76.76,92.05,109.48,66.03C142.21,40.02,201.2,22.19,261.23,1.09c3.77,2.01,3.77,2.51,7.03,2.76,3.27.25,27.63,5.28,54.01,5.28s48.73-.75,63.3-5.02c3.01-1,4.02-2.26,8.54-.25,0,0,75.36,22.86,101.99,34.66,26.63,11.81,49.23,25.37,69.33,57.52,20.1,32.15,90.43,157,90.43,157l-112.3,93.24-14.56-11.74Z"/>
      <path class="cls-2" d="M133.82,334.54s-3.29-203.37,1.89-266.63"/>
      <path class="cls-2" d="M529,334.54s3.29-203.37-1.89-266.63"/>
      <line class="cls-2" x1="94.39" y1="84.29" x2="132.81" y2="122.71"/>
      <line class="cls-2" x1="558.12" y1="85.37" x2="529.98" y2="120"/>
      <line class="cls-2" x1="133.74" y1="592.94" x2="528.35" y2="592.94"/>
      <path class="cls-2" d="M245.7,7.1s-3.02,83.02,77.36,83.02S403.44,7.48,403.44,7.48"/>
      <path class="cls-2" d="M261.23,1.09s-4.96,73.18,61.07,73.18S387.97,17.29,388.34,2.95"/>
      <path class="cls-2" d="M262.31,19.93s34.72,13.58,63.4,13.58,60-9.06,60-9.06"/>
      <path class="cls-2" d="M263.03,25.58s34,13.51,62.68,13.51,60-9.06,60-9.06"/>
      <line class="cls-2" x1="7.07" y1="244.35" x2="129.08" y2="337.03"/>
      <line class="cls-2" x1="649.56" y1="242.13" x2="532.89" y2="337.03"/>
    </g>
  </g>
</svg>