<?xml version="1.0" encoding="UTF-8"?>
<svg id="Layer_2" data-name="Layer 2" xmlns="http://www.w3.org/2000/svg" viewBox="0 0 480.17 778.49">
  <defs>
    <style>
      .cls-1 {
        fill: #cdcdcd;
      }

      .cls-1, .cls-2, .cls-3 {
        stroke: #000;
        stroke-miterlimit: 10;
      }

      .cls-1, .cls-3 {
        stroke-width: 2px;
      }

      .cls-2 {
        stroke-dasharray: 0 3;
      }

      .cls-2, .cls-3 {
        fill: none;
      }
    </style>
  </defs>
  <g id="Vector_Mockups" data-name="Vector Mockups">
    <path class="cls-1" d="M73.78,26.16s-27.01,68.72-34.19,149.44C32.42,256.33,1,646.81,1,675.4s10.31,62.84,10.31,62.84c3.62.6,24.13,17.09,43.6,19.03,16.02,1.6,30.85,4.72,47.19-6.04,0,0,14.65-9.61,18.69-19.51,0,0,26.91-47.93,40.25-110.2,0,0,61.76-214.94,81.63-258.52,0,0,5.77,34.61,13.46,55.76,7.69,21.15,56.82,186.04,65.79,221.93,8.97,35.89,18.09,55.69,33.86,80.04,15.77,24.35,20.26,23.82,20.26,23.82,4.49-1.92,52.48,17.72,59.53,17.08,7.05-.64,31.14-30.94,31.14-30.94,0-8.33,9.26-21.37,12.06-66.17,2.8-44.79-9.97-105.72-13.18-137.77-3.2-32.04-17.84-145.81-22.33-197.72-4.49-51.91-16.02-165.99-24.99-206.36-8.97-40.38-31.98-95.67-31.98-95.67l-124.39,12.36L89.5,18.21l-15.71,7.96Z"/>
    <path class="cls-1" d="M73.78,26.16s66.49,26.6,150.43,26.6,162.07-25.76,162.07-25.76l-5.82-25.76s-73.14,19.12-155.42,19.12S86.25,1.23,86.25,1.23l-12.47,24.93Z"/>
    <path class="cls-3" d="M64.65,55.5s9.43,61.84-25.16,127.87"/>
    <path class="cls-3" d="M396.38,56.05s-6.91,62.17,30.34,126.74"/>
    <path class="cls-3" d="M242.67,363s-7.46-33.58-22.21-62.3c0,0,11.3-82.47,12.02-245.99"/>
    <path class="cls-2" d="M72.19,30.6s59.75,27.58,163.54,27.58c105.71-4.6,151.29-27.96,151.29-27.96"/>
    <path class="cls-2" d="M76.79,22.56s55.15,25.28,158.95,25.28c105.71-4.6,148.6-25.66,148.6-25.66"/>
    <path class="cls-2" d="M67.89,47.59s10.28,38.85,0,79.99c-10.28,41.14-29.71,76.56-29.71,76.56"/>
    <path class="cls-2" d="M393.55,46.07s-10,45.01,3.13,83.78c13.13,38.76,29.38,65.65,34.39,71.9"/>
    <path class="cls-1" d="M102.1,751.23l-90.8-12.99s-7.35,20.68-3.59,25.08c3.77,4.4,85.98,18.26,90.8,12.99,4.82-5.27,3.59-25.08,3.59-25.08Z"/>
    <path class="cls-1" d="M466.71,730.69l-90.67,13.85s-3.08,20.28,3.83,25.04c6.91,4.76,84.46-5.32,90.67-13.85,6.21-8.53-3.83-25.04-3.83-25.04Z"/>
    <line class="cls-1" x1="21.24" y1="742.12" x2="17.29" y2="761.87"/>
    <line class="cls-1" x1="88.83" y1="751.78" x2="86.63" y2="772.84"/>
    <line class="cls-1" x1="70.17" y1="749.8" x2="66.88" y2="769.99"/>
    <line class="cls-1" x1="46.48" y1="747.17" x2="42.31" y2="765.16"/>
    <line class="cls-1" x1="387.59" y1="748.61" x2="389.89" y2="768.62"/>
    <line class="cls-1" x1="454.87" y1="737.05" x2="459.25" y2="757.78"/>
    <line class="cls-1" x1="436.52" y1="740.9" x2="439.58" y2="761.12"/>
    <line class="cls-1" x1="413.15" y1="745.67" x2="414.71" y2="764.07"/>
  </g>
</svg>