<?xml version="1.0" encoding="UTF-8"?>
<svg id="Layer_2" data-name="Layer 2" xmlns="http://www.w3.org/2000/svg" viewBox="0 0 764.236625727830869 961.066198259326484">
  <defs>
    <style>
      .cls-1 {
        stroke-width: 0px;
      }

      .cls-1, .cls-2, .cls-3 {
        fill: none;
      }

      .cls-4 {
        fill: #ccc;
      }

      .cls-4, .cls-2, .cls-3 {
        stroke: #000;
        stroke-miterlimit: 10;
        stroke-width: 2px;
      }

      .cls-3 {
        stroke-dasharray: 0 6;
      }
    </style>
  </defs>
  <g id="Layer_1-2" data-name="Layer 1">
    <g>
      <path class="cls-4" d="M567.957416759198168,507.196950299989112s48.561947938889716,105.892025366720191,54.632191431250249,119.381455349761382c6.070243492360532,13.489429983019363,19.559673475379896,44.51511894397845,23.606502470289342,48.561947938880621,4.046828994911266,4.046828994909447,20.234144974541778,22.257559471989225,31.025688960960906,53.95771993209928l85.65788039220115-15.512844480479544s-10.117072487271798-26.978859966042364-8.768129488969862-60.027963424461632c0,0,2.697885996596597-13.489429983019363-4.721300494060415-43.840647444820206-7.41918649066065-30.351217461808119-36.421460954159556-126.126170341278339-62.725849421060957-190.200962760638504-26.304388466889577-64.074792419360165-66.098206916809431-153.779501806471671-76.889750903239474-171.99023228355145-10.791543986420947-18.210730477079778-31.700160460110055-43.840647444818387-51.934305434640919-52.608776933789159-20.234144974539959-8.768129488971681-82.285522896449038-28.327802964349758-103.868610869280019-41.817232947360026,0,0-11.466015485570097,14.163901482168512-65.423735417669377,14.163901482168512-53.957719932081091,0-76.889750903230379-14.163901482168512-76.889750903230379-14.163901482168512,0,0-39.119346950768886,18.885201976219832-53.283248432939217,23.606502470278429-14.163901482181245,4.721300494071329-45.864061942280387,10.791543986430042-70.81950741088076,31.700160460109146-24.95544546858946,20.908616473681832-37.770403952459674,47.213004940591418-66.772678415969494,112.636740358231691-29.002274463500726,65.423735417691205-67.447149915109549,157.826330801399308-86.3323518913312,221.901123220759473-18.885201976248936,64.074792419360165-22.25755947199832,96.449424378610274-22.25755947199832,108.589911363331339s0,36.42146095417047-10.791543986420947,59.35349192529975c0,0,52.608776933790068,15.512844480479544,84.308937393891028,19.559673475399904,0,0,20.908616473698203-46.538533441438631,33.049103458408354-55.306662930408493,0,0,28.327802964351577-58.679020426141506,39.793818449921673-80.936579898130731,11.466015485568278-22.257559472011053,47.887476439738748-103.19413937013087,47.887476439738748-103.19413937013087l361.51672354502989,16.187315979619598Z"/>
      <path class="cls-4" d="M194.472284867078997,235.322055354310578s10.440973359629425,50.713299175360589,4.474702868430541,132.003734618228918c-5.966270491231626,81.290435442850139-14.169892416661241,144.682059412050876-14.915676228061784,182.717033793560404-.745783811398724,38.034974381520442-2.983135245609446,141.698924166448705,0,142.444707977851067,2.983135245611265.745783811398724,175.25919567955134,1.491567622808361,202.107412890030901,1.491567622808361h187.937520473389668s7.457838114019978,2.237351434199809,7.457838114019978-9.695189548230701c0-11.9325409824487-2.67607973640952-144.638240884178231-4.167647359208786-155.824998055228207-1.491567622811999-11.186757171020872-7.019109811821181-96.995714010161464-8.510677434631361-122.352363597841759-1.491567622799266-25.356649587687571-17.15302766224886-134.241086052428727-4.474702868410532-166.309789942719362"/>
      <path class="cls-2" d="M311.658247081748414,153.099413245629876s9.004903167049633,61.555004204180477,71.217902452570343,61.555004204180477c62.212999285540718,0,71.095583868329413-61.555004204180477,71.095583868329413-61.555004204180477"/>
      <path class="cls-2" d="M292.597545877359153,162.927018881749063s15.096493898099652,71.967355651639991,90.291365654289621,71.967355651639991c75.194871756199063,0,89.19348518777042-71.967355651639991,89.19348518777042-71.967355651639991"/>
      <path class="cls-2" d="M313.785517371228707,162.100354770048398s70.74772126031894,28.741261762021168,137.073709941860216,1.57919020672125"/>
      <path class="cls-2" d="M315.996383660609354,169.364629720909761s68.465536703528414,28.741261761990245,132.651977363089827,1.579190206690328"/>
      <line class="cls-3" x1="118.759398324507856" y1="675.140353588631115" x2="12.192901458629422" y2="651.533851118339953"/>
      <line class="cls-3" x1="646.196110660737759" y1="675.140353588631115" x2="757.032965373139632" y2="646.1513092219393"/>
    </g>
    <rect class="cls-1" x="1.401357472208474" width="761.478322541691341" height="961.066198259326484"/>
  </g>
</svg>