<?xml version="1.0" encoding="UTF-8"?>
<svg id="Layer_2" data-name="Layer 2" xmlns="http://www.w3.org/2000/svg" viewBox="0 0 761.47833251953125 962.06622314453125">
  <defs>
    <style>
      .cls-1 {
        stroke-dasharray: 0 0 0 4;
      }

      .cls-1, .cls-2, .cls-3, .cls-4, .cls-5 {
        fill: none;
      }

      .cls-1, .cls-3, .cls-4, .cls-6, .cls-5 {
        stroke: #000;
        stroke-miterlimit: 10;
      }

      .cls-2 {
        stroke-width: 0px;
      }

      .cls-3, .cls-6 {
        stroke-width: 2px;
      }

      .cls-4 {
        stroke-dasharray: 0 0 0 0 0 0 4.021203994750977 4.021203994750977;
      }

      .cls-6 {
        fill: #cbcbcb;
      }
    </style>
  </defs>
  <g id="Layer_1-2" data-name="Layer 1-2">
    <rect class="cls-2" width="761.47833251953125" height="961.06622314453125"/>
    <g>
      <path class="cls-6" d="M178.107925415039062,82.893829345703125s-8.52276611328125,3.933586120605469-5.572586059570312,14.42315673828125c0,0-46.485801696777344,57.992523193359375-56.826881408691406,249.772491455078125-10.341079711914062,191.780029296875-31.997993469238281,504.910400390625,24.984977722167969,606.18304443359375,0,0-1.515792846679688,7.793701171875,1.956497192382812,7.793701171875h100.262069702148438s4.505264282226562-1.6605224609375,2.616912841796875-7.793701171875c0,0,30.471725463867188-43.78857421875,43.344863891601562-223.70440673828125,13.8272705078125-156.9095458984375,28.82867431640625-316.223785400390625,35.44171142578125-329.449859619140625h0c6.613037109375,13.226104736328125,20.4403076171875,172.540374755859375,34.267608642578125,329.449859619140625,12.87310791015625,179.915771484375,43.3448486328125,223.70440673828125,43.3448486328125,223.70440673828125-1.88836669921875,6.1331787109375,2.616912841796875,7.793701171875,2.616912841796875,7.793701171875h100.2620849609375c3.4722900390625,0,1.95648193359375-7.793701171875,1.95648193359375-7.793701171875,56.98297119140625-101.27264404296875,35.3260498046875-414.40301513671875,24.9849853515625-606.18304443359375-10.341064453125-191.779998779296875-56.826873779296875-249.772506713867188-56.826873779296875-249.772506713867188,2.9501953125-10.48956298828125-5.57257080078125-14.42315673828125-5.57257080078125-14.42315673828125,0,0-59.583343505859375,17.66229248046875-142.43853759765625,17.66229248046875-82.855209350585938,0-148.802444458007812-17.66229248046875-148.802444458007812-17.66229248046875l-.00006103515625.000015258789062Z"/>
      <path class="cls-3" d="M482.558990478515625,111.378860473632812s3.684295654296875,53.490631103515625,35.259796142578125,113.327606201171875"/>
      <path class="cls-1" d="M478.91973876953125,103.105392456054688s-.84564208984375,64.373550415039062,40.43359375,128.666259765625"/>
      <path class="cls-3" d="M164.8978271484375,111.378860473632812s-3.590042114257812,53.490631103515625-35.16552734375,113.327606201171875"/>
      <path class="cls-1" d="M168.537094116210938,103.105392456054688s-1.361892700195312,70.511734008789062-40.339340209960938,128.666259765625"/>
      <line class="cls-1" x1="140.693435668945312" y1="953.27252197265625" x2="245.528900146484375" y2="953.27252197265625"/>
      <path class="cls-3" d="M324.315460205078125,400.118255615234375s-1.506103515625-95.7454833984375-.746612548828125-134.668975830078125,3.79742431640625-102.38372802734375,3.227813720703125-133.3326416015625"/>
      <path class="cls-3" d="M469.348907470703125,82.893829345703125s-72.529449462890625,30.373031616210938-142.203155517578125,30.373031616210938-149.037826538085938-30.373031616210938-149.037826538085938-30.373031616210938"/>
      <path class="cls-3" d="M474.921478271484375,97.316978454589844s-46.45361328125,34.379951477050781-147.424713134765625,34.379951477050781-154.961441040039062-34.379951477050781-154.961441040039062-34.379951477050781"/>
      <g>
        <path class="cls-5" d="M474.92156982421875,101.5325927734375s-.546142578125.404136657714844-1.6484375,1.124778747558594"/>
        <path class="cls-4" d="M469.85638427734375,104.771781921386719c-14.510498046875,8.562065124511719-60.5330810546875,31.140754699707031-142.359619140625,31.140754699707031-86.1396484375,0-138.086669921875-25.021728515625-151.4888916015625-32.372512817382812"/>
        <path class="cls-5" d="M174.250167846679688,102.55401611328125c-1.140625-.655815124511719-1.71484375-1.02142333984375-1.71484375-1.02142333984375"/>
      </g>
      <line class="cls-1" x1="506.763397216796875" y1="953.27252197265625" x2="401.92791748046875" y2="953.27252197265625"/>
    </g>
  </g>
</svg>